<svg xmlns="http://www.w3.org/2000/svg" xmlns:xlink="http://www.w3.org/1999/xlink" version="1.1" width="1000" height="1000" viewBox="0 0 1000 1000" xml:space="preserve">
<desc>Created with Fabric.js 3.5.0</desc>
<defs>
</defs>
<rect x="0" y="0" width="100%" height="100%" fill="#ffffff"/>
<g transform="matrix(5.4765 0 0 5.4765 500.004 500.0012)" id="573579">
<g style="" vector-effect="non-scaling-stroke">
		<g transform="matrix(1 0 0 1 -55 -0.5)">
<path style="stroke: none; stroke-width: 1; stroke-dasharray: none; stroke-linecap: butt; stroke-dashoffset: 0; stroke-linejoin: miter; stroke-miterlimit: 4; is-custom-font: none; font-file-url: none; fill: rgb(0,0,0); fill-rule: evenodd; opacity: 1;" transform=" translate(-28, -24)" d="M 0 14.13 v 0.123 l 27.95 13.13 L 56 14.209 v -0.033 L 27.95 1 L 0 14.13 z m 10.077 0.062 L 27.95 5.795 l 17.877 8.397 l -17.877 8.396 l -17.874 -8.396 z M 27.95 32.483 L 0 19.55 v 4.784 l 27.95 12.964 L 56 24.289 v -4.784 L 27.95 32.483 z m 0 9.703 L 0 29.25 v 4.783 L 27.95 47 L 56 33.99 v -4.784 l -28.05 12.98 z" stroke-linecap="round"/>
</g>
		<g transform="matrix(1 0 0 1 35.995 -0.326)">
<path style="stroke: none; stroke-width: 1; stroke-dasharray: none; stroke-linecap: butt; stroke-dashoffset: 0; stroke-linejoin: miter; stroke-miterlimit: 4; is-custom-font: none; font-file-url: none; fill: rgb(255,255,255); fill-rule: evenodd; opacity: 1;" transform=" translate(-46.995, -24.174)" d="M 87.56 24.152 a 8.1 8.1 0 0 0 -2.161 -5.573 a 7.259 7.259 0 0 0 -2.34 -1.673 a 6.864 6.864 0 0 0 -2.85 -0.601 c -1.01 0 -1.961 0.2 -2.852 0.601 a 7.257 7.257 0 0 0 -2.34 1.673 a 8.102 8.102 0 0 0 -2.16 5.574 a 8.102 8.102 0 0 0 2.16 5.573 a 7.257 7.257 0 0 0 2.34 1.672 a 6.864 6.864 0 0 0 2.851 0.602 c 1.01 0 1.96 -0.2 2.852 -0.602 a 7.259 7.259 0 0 0 2.339 -1.672 a 8.1 8.1 0 0 0 2.16 -5.574 z m 6.415 0 c 0 1.932 -0.357 3.723 -1.07 5.373 a 13.098 13.098 0 0 1 -2.94 4.28 c -1.247 1.205 -2.71 2.156 -4.388 2.854 c -1.678 0.699 -3.468 1.048 -5.369 1.048 c -1.9 0 -3.683 -0.349 -5.346 -1.048 a 13.863 13.863 0 0 1 -4.366 -2.876 a 13.351 13.351 0 0 1 -2.94 -4.302 c -0.713 -1.65 -1.07 -3.426 -1.07 -5.329 c 0 -1.873 0.364 -3.634 1.092 -5.284 a 13.92 13.92 0 0 1 2.962 -4.325 a 13.671 13.671 0 0 1 4.367 -2.898 a 13.552 13.552 0 0 1 5.301 -1.048 c 1.901 0 3.69 0.35 5.369 1.048 c 1.678 0.698 3.14 1.65 4.388 2.854 c 1.248 1.204 2.228 2.638 2.94 4.302 c 0.713 1.665 1.07 3.449 1.07 5.351 z M 64.258 36.905 a 8.6 8.6 0 0 1 -1.715 0.58 c -0.638 0.148 -1.3 0.222 -1.982 0.222 a 9.84 9.84 0 0 1 -2.74 -0.379 a 6.003 6.003 0 0 1 -2.295 -1.226 c -0.653 -0.565 -1.173 -1.3 -1.56 -2.207 c -0.385 -0.907 -0.578 -2 -0.578 -3.277 V 0.029 h 6.549 v 29.474 c 0 1.07 0.215 1.806 0.646 2.207 c 0.43 0.401 0.943 0.602 1.537 0.602 c 0.742 0 1.455 -0.223 2.138 -0.669 v 5.262 z M 50.492 11.22 L 38.908 41.854 c -0.861 2.289 -1.99 3.939 -3.386 4.95 c -1.396 1.01 -3.06 1.515 -4.99 1.515 c -0.297 0 -0.623 -0.022 -0.98 -0.066 a 7.352 7.352 0 0 1 -1.025 -0.201 l -2.138 -5.975 a 8.486 8.486 0 0 0 1.56 0.557 c 0.534 0.134 1.039 0.201 1.514 0.201 c 1.01 0 1.93 -0.23 2.762 -0.691 c 0.832 -0.46 1.47 -1.315 1.916 -2.564 l 0.891 -2.586 l -9.935 -25.773 h 6.995 l 5.925 16.588 l 5.57 -16.588 h 6.905 z M 23.538 7.342 H 6.786 v 8.294 h 16.529 v 5.618 H 6.785 v 15.784 H 0.015 V 1.412 h 23.524 v 5.93 z" stroke-linecap="round"/>
</g>
</g>
</g>
</svg>